<svg version="1.1" id="Layer_1" xmlns="http://www.w3.org/2000/svg" xmlns:xlink="http://www.w3.org/1999/xlink" x="0px" y="0px"
	 width="100%" viewBox="0 0 1024 480" enable-background="new 0 0 1024 480" xml:space="preserve">
<path fill="#000000" opacity="1.000000" stroke="none" 
	d="
M0.999996,229.454102 
	C1.520314,229.606491 1.946996,230.341888 2.575980,230.798782 
	C7.068850,234.062378 5.308017,236.512558 1.303902,238.874634 
	C1.000000,235.969406 1.000000,232.938812 0.999996,229.454102 
z"/>
<path fill="#000000" opacity="1.000000" stroke="none" 
	d="
M944.018860,162.028610 
	C940.420959,161.463226 936.804199,160.994370 933.232300,160.295868 
	C931.124878,159.883759 929.028076,159.258682 927.035095,158.458710 
	C924.332336,157.373856 921.785706,155.830933 921.842346,152.457840 
	C921.899597,149.058350 924.600952,147.618073 927.287598,146.671829 
	C931.002991,145.363190 934.856567,144.446472 939.044189,143.249496 
	C936.087769,137.924393 933.170654,132.929337 930.507385,127.802361 
	C927.635986,122.274765 925.438354,116.665184 927.600830,110.147789 
	C931.563232,98.205818 944.219971,92.073174 956.104614,96.601349 
	C967.627869,100.991814 972.794739,113.427406 967.492371,124.890839 
	C964.651794,131.031982 961.115295,136.851196 957.773132,143.037155 
	C961.309875,145.047516 965.358337,144.678467 968.811462,146.232086 
	C971.700745,147.531952 975.059570,148.606827 975.122437,152.466171 
	C975.185486,156.337860 971.895081,157.778275 968.977234,158.859085 
	C961.209656,161.736313 953.027161,161.918457 944.418823,161.979416 
	C943.980774,162.001190 944.018860,162.028610 944.018860,162.028610 
M954.319580,139.884933 
	C957.958435,134.126526 961.522766,128.327957 964.241211,122.055748 
	C965.316284,119.575256 966.050537,117.028481 965.564087,114.312592 
	C964.282166,107.156044 960.341980,102.187119 953.284851,100.044487 
	C946.456909,97.971504 940.301331,99.518501 935.530212,104.725227 
	C930.596924,110.109001 929.634338,116.459770 932.780334,123.215996 
	C936.647888,131.521912 941.730774,139.127762 946.516785,146.902985 
	C946.944031,147.597183 947.511658,148.242905 948.703003,148.102325 
	C950.898071,146.009277 952.311401,143.178406 954.319580,139.884933 
z"/>
<path fill="#000000" opacity="1.000000" stroke="none" 
	d="
M280.256409,117.281151 
	C284.794067,117.536240 288.921295,117.837761 293.052307,118.073730 
	C297.496521,118.327591 297.263214,121.457397 297.042175,124.531593 
	C296.819458,127.630051 295.716858,129.464310 291.983307,128.749893 
	C289.093384,128.196899 286.057526,128.448059 283.097931,128.203903 
	C280.936188,128.025574 278.159668,128.862625 277.564423,125.474266 
	C277.023560,122.395645 276.152374,119.203384 280.256409,117.281151 
z"/>
<path fill="#000000" opacity="1.000000" stroke="none" 
	d="
M213.307999,133.252197 
	C207.885727,134.901733 207.176178,131.718491 206.349289,127.889839 
	C205.430847,123.637352 207.907715,123.095795 210.921997,122.619499 
	C214.199341,122.101639 217.483307,121.606186 220.736618,120.960907 
	C224.585922,120.197418 225.755112,122.312744 226.147675,125.582642 
	C226.509003,128.592316 226.766037,131.256302 222.512726,131.612808 
	C219.554794,131.860718 216.642090,132.647995 213.307999,133.252197 
z"/>
<path fill="#000000" opacity="1.000000" stroke="none" 
	d="
M607.374023,257.596985 
	C610.074890,258.952423 612.405396,260.221924 614.777283,261.408966 
	C619.407715,263.726410 619.898499,268.353668 615.941162,271.770996 
	C614.476624,273.035645 613.264282,272.498657 611.866394,271.798187 
	C608.751099,270.237091 605.641113,268.651886 602.447144,267.264832 
	C599.447205,265.961975 597.705139,264.534973 599.642578,260.894623 
	C601.354492,257.677917 602.760376,254.768250 607.374023,257.596985 
z"/>
<path fill="#000000" opacity="1.000000" stroke="none" 
	d="
M176.207489,131.009430 
	C179.129288,130.172729 181.715073,129.574722 184.211349,128.716385 
	C187.722382,127.509117 190.151917,127.711739 191.231445,132.047348 
	C192.222961,136.029465 191.545319,138.388901 187.163315,139.171936 
	C184.409698,139.663956 181.639648,140.367233 179.050339,141.407349 
	C174.695847,143.156494 173.289902,140.971741 171.996353,137.281570 
	C170.568527,133.208267 172.381378,131.823318 176.207489,131.009430 
z"/>
<path fill="#000000" opacity="1.000000" stroke="none" 
	d="
M896.654968,229.977127 
	C895.221924,228.623825 894.064270,227.448624 892.936829,226.245056 
	C891.262756,224.457916 891.381897,222.816254 893.200745,221.127075 
	C895.981445,218.544632 898.748718,215.936310 901.359070,213.184784 
	C904.271912,210.114471 906.197327,212.061157 908.337219,214.174774 
	C910.409851,216.222015 912.147522,218.266281 909.047546,220.674713 
	C905.002502,223.817398 902.726624,229.231812 896.654968,229.977127 
z"/>
<path fill="#000000" opacity="1.000000" stroke="none" 
	d="
M664.689941,290.995789 
	C666.997253,282.326294 666.998047,282.323608 674.994690,284.601532 
	C676.742737,285.099487 678.463074,285.711456 680.231384,286.117889 
	C684.022278,286.989166 685.958374,288.585693 684.697632,293.063354 
	C683.405212,297.653473 680.810913,297.709961 677.200012,296.471893 
	C672.933899,295.009155 668.107117,294.932495 664.689941,290.995789 
z"/>
<path fill="#000000" opacity="1.000000" stroke="none" 
	d="
M242.064514,126.397659 
	C241.409332,118.470955 241.688019,118.161316 249.202103,117.802826 
	C251.182861,117.708321 253.174118,117.668991 255.138321,117.425171 
	C259.790466,116.847679 261.625305,118.613319 261.459839,123.476730 
	C261.342468,126.927338 260.359375,128.266647 256.937714,128.259827 
	C253.481659,128.252914 250.017212,128.567963 246.571274,128.897232 
	C244.595505,129.086029 242.913757,129.014557 242.064514,126.397659 
z"/>
<path fill="#000000" opacity="1.000000" stroke="none" 
	d="
M646.241089,286.361877 
	C641.742065,284.625336 637.631104,282.868561 633.464233,281.256348 
	C630.556824,280.131409 630.933472,278.157959 631.918640,276.012512 
	C632.964355,273.735077 633.268250,270.187042 637.094788,271.462524 
	C641.488037,272.926910 645.706055,274.916077 650.003845,276.668488 
	C651.242798,277.173676 652.150635,278.226746 651.534424,279.356171 
	C650.164429,281.867279 651.188904,286.146515 646.241089,286.361877 
z"/>
<path fill="#000000" opacity="1.000000" stroke="none" 
	d="
M848.538452,255.675934 
	C852.990723,255.662048 853.727844,259.277618 854.756714,261.955078 
	C855.773743,264.601868 852.690430,265.303528 851.035767,266.452667 
	C848.860107,267.963684 846.445251,269.132599 844.284668,270.662445 
	C841.194275,272.850677 838.937073,273.172302 836.646118,269.315430 
	C834.392029,265.520660 835.026550,263.375275 838.834167,261.441559 
	C842.078125,259.794067 845.092896,257.695312 848.538452,255.675934 
z"/>
<path fill="#000000" opacity="1.000000" stroke="none" 
	d="
M578.010498,241.952271 
	C580.067993,243.094986 581.730774,244.251022 583.564148,244.974976 
	C588.314758,246.850891 588.186584,249.581406 585.681702,253.394180 
	C583.987854,255.972336 582.385803,256.893250 579.629211,255.143875 
	C577.113342,253.547256 574.660889,251.674667 571.908447,250.665955 
	C567.219849,248.947662 566.878235,246.792770 569.198914,242.500931 
	C572.048584,237.230759 574.750366,240.406769 578.010498,241.952271 
z"/>
<path fill="#000000" opacity="1.000000" stroke="none" 
	d="
M31.525871,208.583038 
	C35.160351,212.447510 34.149864,215.198395 30.271080,217.603882 
	C28.300213,218.826157 26.520710,220.354492 24.635752,221.718292 
	C19.848352,225.182053 18.761963,224.915085 15.628675,220.120544 
	C14.050895,217.706238 14.141070,215.905594 16.602926,214.226913 
	C19.760429,212.073883 22.889265,209.869965 25.924160,207.548996 
	C28.078423,205.901489 29.809078,205.891434 31.525871,208.583038 
z"/>
<path fill="#000000" opacity="1.000000" stroke="none" 
	d="
M60.794762,196.904968 
	C57.970181,198.717407 55.281532,200.129196 52.948399,201.987366 
	C49.321991,204.875519 47.229370,203.501114 44.946144,200.152847 
	C42.549694,196.638535 43.897598,194.766312 46.943684,192.975464 
	C49.527210,191.456573 52.016521,189.774643 54.519695,188.122696 
	C56.717625,186.672165 58.927650,185.203522 60.784466,188.469833 
	C62.293079,191.123611 65.921234,193.783905 60.794762,196.904968 
z"/>
<path fill="#000000" opacity="1.000000" stroke="none" 
	d="
M78.571602,173.609924 
	C80.759857,172.326859 82.599174,171.186142 84.476593,170.112045 
	C89.610291,167.175064 90.423431,167.543625 93.025650,172.915482 
	C94.306625,175.559830 93.910698,177.265091 91.306786,178.622864 
	C88.653023,180.006622 86.070244,181.528625 83.476555,183.025055 
	C78.527115,185.880661 74.855690,184.167816 74.019211,178.562820 
	C73.536766,175.330048 76.473572,175.060196 78.571602,173.609924 
z"/>
<path fill="#000000" opacity="1.000000" stroke="none" 
	d="
M393.947876,152.069183 
	C390.775360,150.969574 387.998901,149.878342 385.155334,149.005783 
	C381.764008,147.965134 380.052094,146.362244 381.522583,142.464676 
	C382.899445,138.815384 384.414246,136.619141 388.760620,138.746414 
	C391.562408,140.117691 394.668121,140.861359 397.619934,141.934875 
	C400.188995,142.869156 402.157104,144.207581 400.786713,147.430984 
	C399.570709,150.291275 398.838959,153.824066 393.947876,152.069183 
z"/>
<path fill="#000000" opacity="1.000000" stroke="none" 
	d="
M750.895020,292.751068 
	C756.050537,293.417206 754.966980,297.207062 755.071838,300.122345 
	C755.181702,303.176788 752.614136,303.174805 750.455994,303.367035 
	C746.829163,303.690033 743.197754,303.961639 739.569641,304.270660 
	C734.568726,304.696625 735.854004,300.921295 735.413452,298.192932 
	C734.931885,295.210449 736.067200,293.857178 739.072998,293.695709 
	C742.875427,293.491547 746.666809,293.082489 750.895020,292.751068 
z"/>
<path fill="#000000" opacity="1.000000" stroke="none" 
	d="
M771.148071,296.821838 
	C769.447754,289.935760 769.602722,289.680542 776.118103,287.920227 
	C778.366577,287.312775 780.670166,286.850800 782.845398,286.044189 
	C786.463562,284.702515 788.248779,285.873260 789.539429,289.496796 
	C790.953186,293.465576 790.016907,295.452545 785.974182,296.344208 
	C782.566406,297.095825 779.216919,298.108948 775.834473,298.978607 
	C773.915283,299.472076 772.160217,299.454437 771.148071,296.821838 
z"/>
<path fill="#000000" opacity="1.000000" stroke="none" 
	d="
M526.401978,211.553833 
	C526.849548,214.639572 524.757507,216.327530 523.516479,218.398239 
	C522.430725,220.209839 520.949097,220.176498 519.283569,219.140457 
	C516.334778,217.306183 513.435059,215.371552 510.372345,213.747559 
	C506.781097,211.843277 505.758698,209.865601 508.198273,205.980530 
	C510.736298,201.938721 513.071716,202.517441 516.256287,204.775162 
	C519.484802,207.064026 522.891418,209.101669 526.401978,211.553833 
z"/>
<path fill="#000000" opacity="1.000000" stroke="none" 
	d="
M814.262207,274.297119 
	C819.769287,271.859039 822.457397,273.384796 823.520386,279.001312 
	C823.878052,280.891205 823.048767,281.802490 821.561279,282.497223 
	C818.254028,284.041840 814.872375,285.446808 811.657166,287.163635 
	C808.016602,289.107574 806.078613,288.216248 804.473022,284.372223 
	C802.861694,280.514709 803.668518,278.493744 807.541077,277.234863 
	C809.740540,276.519836 811.809753,275.404144 814.262207,274.297119 
z"/>
<path fill="#000000" opacity="1.000000" stroke="none" 
	d="
M347.177734,135.808502 
	C348.949066,126.979660 348.948608,126.981201 357.267029,129.416138 
	C358.864441,129.883728 360.470276,130.322601 362.066406,130.794434 
	C367.537476,132.411697 368.546356,134.875549 365.831512,139.898911 
	C365.340240,140.807907 364.706268,141.971146 363.698395,141.712830 
	C358.078918,140.272614 351.669464,141.120392 347.177734,135.808502 
z"/>
<path fill="#000000" opacity="1.000000" stroke="none" 
	d="
M543.204102,233.857819 
	C542.033752,233.177963 541.204956,232.619888 540.315308,232.186844 
	C537.111694,230.627472 535.884155,228.822647 538.133972,225.224472 
	C540.296021,221.766708 542.264343,220.433044 545.937500,223.084152 
	C548.475342,224.915833 551.248535,226.446945 554.014160,227.930466 
	C556.978394,229.520493 557.467529,231.327545 555.673950,234.312241 
	C552.720947,239.226364 552.300354,239.470779 547.322083,236.369980 
	C546.059448,235.583527 544.786133,234.814178 543.204102,233.857819 
z"/>
<path fill="#000000" opacity="1.000000" stroke="none" 
	d="
M476.792847,189.686981 
	C480.585144,182.925659 480.586823,182.922882 487.025726,186.806396 
	C488.731964,187.835480 490.418823,188.896683 492.124298,189.927078 
	C497.231995,193.013016 497.490662,195.624176 493.188416,199.871277 
	C492.268463,200.779388 491.330994,201.374802 490.118896,200.767853 
	C485.520630,198.465347 481.022308,195.977615 477.001801,192.739960 
	C476.170166,192.070236 476.107391,191.005524 476.792847,189.686981 
z"/>
<path fill="#000000" opacity="1.000000" stroke="none" 
	d="
M716.627319,293.047546 
	C721.008667,295.389709 719.556335,299.083832 718.831116,301.971893 
	C718.132874,304.752594 715.098145,304.063782 712.823242,303.742432 
	C710.039124,303.349182 707.291260,302.665436 704.499939,302.365997 
	C700.638977,301.951843 698.926086,300.431000 699.759094,296.187469 
	C700.556152,292.127380 702.451477,291.084503 706.338989,291.913513 
	C709.548584,292.597992 712.899170,292.621094 716.627319,293.047546 
z"/>
<path fill="#000000" opacity="1.000000" stroke="none" 
	d="
M432.173889,163.794159 
	C430.765991,166.731339 428.818909,166.791229 426.712433,165.394165 
	C422.605591,162.670441 415.769928,163.281525 414.304138,157.742340 
	C412.930084,152.549942 417.787292,149.554993 422.654114,151.813553 
	C424.895599,152.853775 427.018646,154.243454 429.352448,154.970978 
	C434.354004,156.530167 434.940155,159.379517 432.173889,163.794159 
z"/>
<path fill="#000000" opacity="1.000000" stroke="none" 
	d="
M456.161133,180.910507 
	C453.815369,179.607651 451.851837,178.343170 449.739441,177.418854 
	C445.544830,175.583420 445.222351,173.206619 447.382050,169.229767 
	C449.762909,164.845779 452.132416,166.410507 454.996185,168.157227 
	C457.253632,169.534088 459.539062,170.893326 461.922333,172.028854 
	C465.391113,173.681580 466.542572,175.551346 464.341492,179.369492 
	C462.094421,183.267441 459.802399,183.703690 456.161133,180.910507 
z"/>
<path fill="#000000" opacity="1.000000" stroke="none" 
	d="
M870.908386,239.869858 
	C872.099792,238.937576 873.091675,238.302017 873.898987,237.484253 
	C877.126648,234.214981 879.497253,234.930222 882.334839,238.376373 
	C885.481750,242.198212 883.088257,243.873657 880.466614,245.867477 
	C878.492798,247.368515 876.563660,248.928925 874.576233,250.411377 
	C869.710876,254.040375 868.608276,253.733841 865.454956,248.480957 
	C864.198975,246.388824 864.263550,244.825180 866.275757,243.378830 
	C867.752136,242.317657 869.176514,241.184128 870.908386,239.869858 
z"/>
<path fill="#000000" opacity="1.000000" stroke="none" 
	d="
M113.307907,155.252304 
	C114.528320,154.634720 115.451836,154.251465 116.312569,153.758560 
	C119.561501,151.897995 122.124512,151.146133 124.126671,155.738892 
	C126.033302,160.112518 124.768074,162.130768 120.668823,163.594360 
	C118.031174,164.536102 115.509254,165.872391 113.057762,167.249557 
	C108.762184,169.662674 107.723221,166.477081 106.123856,163.641113 
	C104.306618,160.418823 105.459152,158.782364 108.516121,157.613037 
	C110.056915,157.023666 111.496712,156.170288 113.307907,155.252304 
z"/>
<path fill="#000000" opacity="1.000000" stroke="none" 
	d="
M138.153320,147.599609 
	C137.658081,145.767914 137.968842,144.455963 139.402237,143.883713 
	C143.706329,142.165390 147.959015,140.141647 152.431595,139.075089 
	C156.365631,138.136917 156.375885,142.223160 157.522476,144.561279 
	C158.656158,146.873077 157.586777,148.324051 155.339493,149.162994 
	C152.699966,150.148376 150.082855,151.193649 147.451279,152.200562 
	C140.777283,154.754196 140.776230,154.751434 138.153320,147.599609 
z"/>
<path fill="#000000" opacity="1.000000" stroke="none" 
	d="
M924.103943,188.071533 
	C926.786499,183.475937 929.289612,185.710327 932.016052,187.583298 
	C934.972900,189.614655 934.862549,191.588776 932.684998,194.110596 
	C930.304688,196.867157 928.076904,199.760483 925.872192,202.662231 
	C923.491943,205.794998 921.487427,204.393585 919.294434,202.394287 
	C917.130371,200.421295 914.728699,198.778183 917.824402,195.593552 
	C920.011902,193.343307 921.874573,190.777359 924.103943,188.071533 
z"/>
<path fill="#000000" opacity="1.000000" stroke="none" 
	d="
M313.464478,130.819183 
	C311.099060,123.382904 313.604126,120.237823 320.396637,121.478676 
	C322.516815,121.865997 324.635223,122.263725 326.751160,122.673637 
	C332.410980,123.770081 333.746796,126.633492 331.163513,131.789871 
	C330.429596,133.254745 329.405975,133.685867 327.964111,133.447830 
	C323.238373,132.667587 318.518707,131.850159 313.464478,130.819183 
z"/>
<path fill="#000000" opacity="1.000000" stroke="none" 
	d="
M943.959351,161.991425 
	C947.180725,162.734390 949.705139,164.131332 948.040771,168.032776 
	C946.906799,170.690781 947.139160,175.111694 942.874207,174.674530 
	C940.450256,174.426071 937.075073,173.482803 936.438965,170.153198 
	C935.874939,167.201477 940.019226,162.518585 943.622498,162.021637 
	C944.018860,162.028610 943.980774,162.001190 943.959351,161.991425 
z"/>
<path fill="#000000" opacity="1.000000" stroke="none" 
	d="
M957.186035,110.065269 
	C959.991028,116.559052 958.815125,121.805771 954.131165,124.930885 
	C950.119995,127.607178 944.239990,127.001701 940.759583,123.553879 
	C937.110291,119.938919 936.694397,114.207977 939.449341,109.757889 
	C942.503540,104.824585 952.618652,102.896759 957.186035,110.065269 
M941.759460,114.216156 
	C941.507324,120.161331 945.614136,123.919197 950.344482,122.050591 
	C953.295105,120.885010 954.719116,118.616730 954.651245,115.509613 
	C954.585632,112.505211 952.773804,110.522789 950.104126,109.661285 
	C946.362366,108.453857 943.751892,110.207436 941.759460,114.216156 
z"/>
</svg>